PathFileType	4	(X/Y/Z)	 s05c0201.trc
DataRate	CameraRate	NumFrames	NumMarkers	Units	OrigDataRate	OrigDataStartFrame	OrigNumFrames
200	200	5	50	mm	200	751	2000
Frame#	Time	racr			lacr			c7			jug			rlel			rdr			llel			ldr			s2			lic			ric			lasi			rasi			rpsi			lpsi			rgt			lgt			rth1			rth2			rth3			rth4			rlfc			rmfc			rsh1			rsh2			rsh3			rsh4			rlmal			rmmal			rcal			rtoe			rmt5			lth1			lth2			lth4			lth3			llfc			lmfc			lsh1			lsh2			lsh3			lsh4			llmal			lmmal			lcal			ltoe			lmt5			SBIKE			LBIKE			RBIKE			
		X1	Y1	Z1	X2	Y2	Z2	X3	Y3	Z3	X4	Y4	Z4	X5	Y5	Z5	X6	Y6	Z6	X7	Y7	Z7	X8	Y8	Z8	X9	Y9	Z9	X10	Y10	Z10	X11	Y11	Z11	X12	Y12	Z12	X13	Y13	Z13	X14	Y14	Z14	X15	Y15	Z15	X16	Y16	Z16	X17	Y17	Z17	X18	Y18	Z18	X19	Y19	Z19	X20	Y20	Z20	X21	Y21	Z21	X22	Y22	Z22	X23	Y23	Z23	X24	Y24	Z24	X25	Y25	Z25	X26	Y26	Z26	X27	Y27	Z27	X28	Y28	Z28	X29	Y29	Z29	X30	Y30	Z30	X31	Y31	Z31	X32	Y32	Z32	X33	Y33	Z33	X34	Y34	Z34	X35	Y35	Z35	X36	Y36	Z36	X37	Y37	Z37	X38	Y38	Z38	X39	Y39	Z39	X40	Y40	Z40	X41	Y41	Z41	X42	Y42	Z42	X43	Y43	Z43	X44	Y44	Z44	X45	Y45	Z45	X46	Y46	Z46	X47	Y47	Z47	X48	Y48	Z48	X49	Y49	Z49	X50	Y50	Z50	
751	3.7550	472.593718	1256.240626	-101.066542	502.811060	1239.772848	-351.179718	464.836299	1329.409639	-236.789724	401.721919	1179.514135	-229.986391	460.063589	1042.644526	75.375732	661.817525	966.372552	-40.691785	471.397345	1069.181938	-597.041561	660.639107	969.340768	-458.448510	-108.574558	1178.334898	-285.024217	44.568415	1173.602419	-416.978926	25.494381	1211.291622	-135.599040	85.589153	1122.696578	-373.889005	73.122389	1145.283431	-153.601156	-73.823151	1228.704624	-248.186420	-67.091005	1223.568950	-333.612996	-14.208506	1075.015003	-103.632510	-14.852203	1076.806258	-444.213281	74.025603	980.151903	-85.264065	145.402004	926.719099	-87.107307	179.372606	845.585229	-94.254763	172.938877	949.466785	-98.588216	277.163728	732.544585	-117.766797	259.202261	721.247467	-224.186035	240.747466	630.250535	-84.034866	256.330731	543.211209	-92.137345	229.843480	462.027047	-91.443844	283.494490	543.134570	-119.303686	227.332572	322.299721	-98.351138	232.868031	350.522944	-178.503669	159.347712	282.750284	-139.898362	455.467748	293.517910	-148.785140	360.471696	257.558175	-79.132584	100.138203	994.408757	-443.502763	184.732266	978.812207	-435.982262	200.212641	1009.474151	-420.107212	251.643229	918.106236	-429.699313	359.922086	821.418136	-385.876796	330.177975	807.677233	-281.654366	268.373252	741.199378	-422.968983	220.207081	669.316802	-416.803664	141.098168	628.655419	-425.979752	238.649818	647.949940	-390.383660	56.387077	548.839234	-431.191490	86.298608	548.496543	-351.778742	-13.930667	565.247098	-390.638872	156.884634	324.079323	-391.796002	71.563918	392.732591	-456.256104	-258.822446	898.264104	-281.283845	-43.516807	84.809519	-475.025960	-51.827171	80.017440	-77.519938	
752	3.7600	473.529803	1257.890925	-102.014851	503.219357	1239.234977	-352.368563	465.744182	1330.040761	-238.407817	402.146295	1180.255826	-230.669194	460.534352	1044.799760	75.166726	661.755565	966.414828	-40.801284	471.175060	1067.371929	-597.192935	661.099835	969.225909	-458.324778	-107.803619	1178.758364	-282.534220	44.189048	1174.882465	-415.553703	27.171634	1211.666151	-133.817492	85.569793	1123.858373	-372.464311	74.372213	1145.517644	-152.138434	-72.752189	1229.295252	-245.725597	-66.704616	1224.608388	-331.164797	-13.600336	1074.133081	-102.309681	-14.450215	1079.482815	-442.893090	72.820900	977.216813	-84.158260	142.586696	921.820074	-86.423608	174.217970	839.742418	-93.771452	170.683925	944.004536	-97.836101	269.871579	725.026356	-117.827398	250.192390	713.554741	-223.598404	234.633664	622.615964	-83.481218	250.962630	535.803428	-91.965713	225.446455	454.311390	-90.976569	277.943037	535.998576	-119.804519	224.180513	314.771562	-98.176680	229.656241	342.339887	-178.329924	155.906503	275.830525	-139.554119	452.266118	282.441363	-149.286598	356.871550	248.165822	-79.378312	101.659315	998.673610	-443.469989	186.473240	985.119397	-435.161850	201.010147	1015.897207	-418.525254	254.892376	925.924995	-429.278819	364.918559	830.713055	-385.629523	335.191000	816.355416	-281.417436	273.241707	750.429587	-422.389796	224.820882	678.549179	-416.249895	145.594597	638.304276	-425.367156	243.239255	657.199008	-389.895827	60.362080	558.818755	-430.711975	90.290834	558.425045	-351.196748	-10.131970	575.056148	-390.257122	161.322339	334.210751	-391.580338	75.887695	402.829230	-455.974847	-258.910345	898.294907	-281.069242	-43.518524	84.873641	-475.015687	-51.829221	80.022066	-77.516407	
753	3.7650	474.569592	1259.478959	-103.179460	503.654276	1238.604037	-353.600916	466.809669	1330.654442	-240.063847	402.637444	1180.981523	-231.426986	461.090006	1047.032027	74.891207	661.652579	966.430666	-40.929382	470.886438	1065.463311	-597.411033	661.728375	969.129952	-458.225839	-106.992356	1179.619655	-280.067728	44.677045	1176.638623	-415.154154	28.899120	1211.913674	-132.041955	85.710687	1125.541655	-371.419380	75.716471	1145.687943	-150.720615	-70.560983	1229.985521	-243.077261	-66.160618	1225.791419	-328.537739	-13.044594	1073.299230	-100.882924	-13.977055	1082.296683	-441.621315	70.783883	974.206070	-83.648391	139.310733	917.117139	-85.678711	168.611698	834.196305	-93.089684	168.140879	938.682165	-97.073139	261.914830	717.649818	-117.525960	240.836312	706.418609	-222.874058	227.906940	615.175450	-82.943241	245.052695	528.529995	-91.883540	220.631775	446.777161	-90.428007	271.720637	529.180455	-120.027430	220.387556	307.567253	-98.185445	226.161259	334.440412	-178.305716	151.886280	269.241948	-139.580983	448.438204	271.667187	-149.599629	352.635358	238.920547	-79.616479	103.009035	1003.468186	-443.082602	188.021074	991.806417	-434.237681	201.682704	1022.709652	-417.036887	257.799048	934.246071	-428.946328	369.651791	840.168060	-385.655557	340.176511	824.998508	-281.129027	278.107744	759.899904	-421.775516	229.366309	688.016175	-415.584702	150.240471	647.835035	-424.533811	248.076966	666.602163	-389.595442	64.449741	568.400015	-430.197498	94.404924	568.115090	-350.668291	-5.969092	584.322593	-389.706028	166.452107	344.393306	-391.347566	80.805198	412.566609	-455.578663	-258.863671	898.346996	-281.201316	-43.522953	84.910571	-474.992281	-51.820188	80.050658	-77.526593	
754	3.7700	475.700442	1260.980407	-104.487166	504.145296	1238.130166	-354.817904	467.924858	1331.312732	-241.858307	403.153247	1181.923260	-232.521860	461.721464	1049.262336	74.520726	661.579790	966.441456	-41.069112	470.478198	1063.383731	-597.661351	662.373775	969.113225	-458.322758	-106.239940	1180.583742	-277.638306	44.242378	1178.130150	-413.631585	30.809333	1211.981613	-130.245352	85.534287	1127.709524	-370.117091	77.150870	1145.715512	-149.406722	-69.698915	1230.658496	-240.391351	-65.707852	1227.070127	-325.976882	-12.640448	1072.615846	-99.574745	-13.472727	1085.151188	-440.526567	68.883971	971.746228	-82.364578	135.703888	912.646348	-84.648620	162.718381	829.042766	-92.100152	165.175462	933.729204	-95.786330	253.377559	710.446657	-116.983729	231.191215	699.411177	-221.828977	220.521799	607.926657	-82.336065	238.564421	521.602713	-91.644783	215.229396	439.563705	-90.080468	264.973117	522.575497	-120.031894	216.023639	300.362506	-98.294567	221.718947	327.283582	-178.272534	147.424137	263.046022	-139.910633	444.051859	261.074049	-149.666732	347.697834	229.814837	-79.809702	104.086150	1008.661852	-442.211606	189.356551	998.767102	-433.262261	202.256568	1029.757235	-415.667238	260.366909	942.752332	-428.522880	374.197790	849.911939	-385.403054	345.108079	833.844145	-280.870082	282.887252	769.539843	-421.149213	234.200021	697.683410	-415.183635	155.018596	657.590665	-424.063555	252.959517	676.099016	-389.300573	68.726972	577.733745	-429.681306	98.839264	577.558202	-350.172401	-2.061839	593.012420	-389.083070	172.257656	354.341539	-391.154969	86.257116	422.191621	-455.295758	-258.820149	898.409746	-281.130217	-43.522405	84.991555	-474.994622	-51.818919	80.048732	-77.525133	
755	3.7750	476.893370	1262.394919	-105.929972	504.675985	1237.554053	-356.216875	469.083490	1331.972134	-243.733652	403.677117	1182.881024	-233.779962	462.493838	1051.484079	73.990783	661.541394	966.445331	-41.154821	470.075157	1061.346006	-597.939148	663.000054	969.268583	-458.720296	-105.446890	1181.624866	-275.260543	43.692187	1179.758901	-412.093615	32.865244	1211.854315	-128.489601	85.568945	1129.267748	-368.969225	78.627950	1145.605739	-148.207568	-68.609094	1231.442216	-237.757979	-65.250667	1228.367365	-323.332447	-12.275721	1071.938107	-98.274880	-12.994425	1088.128512	-439.478378	66.604627	969.529985	-81.034177	131.752913	908.642453	-83.522822	156.346770	824.327345	-90.970666	161.700556	928.584422	-94.547034	244.313350	703.637428	-116.076274	221.356495	692.729583	-220.604518	212.460581	601.078759	-81.582093	231.322536	514.869922	-91.263461	208.768539	432.619367	-90.099482	257.657534	516.323203	-119.724295	210.947473	293.739748	-98.415594	217.054402	320.350209	-178.321743	142.319649	257.393469	-140.377945	438.997831	251.031566	-149.599745	342.076980	221.019124	-80.022688	105.002634	1014.112377	-441.093888	190.454019	1005.867420	-432.372592	202.691616	1037.040993	-414.266252	262.588406	951.288221	-428.105516	378.412247	859.660955	-385.437426	350.107385	842.841725	-280.086204	287.259578	779.272972	-420.310434	238.847621	707.210149	-414.460747	159.813421	667.293545	-423.538936	257.831830	685.525903	-389.400105	73.164958	586.580081	-429.116962	103.183794	586.552909	-349.921622	2.231011	601.360044	-388.684107	178.616338	364.337795	-390.948699	92.065634	431.444635	-454.943908	-258.686289	898.489913	-280.905913	-43.513674	85.022833	-474.974577	-51.802274	80.065974	-77.507119	
